<?xml version="1.0" encoding="utf-8"?>
<svg version="1.1" xmlns:xlink="http://www.w3.org/1999/xlink" width="40px" height="50px" xmlns="http://www.w3.org/2000/svg">
  <defs>
    <filter x="366px" y="311px" width="40px" height="50px" filterUnits="userSpaceOnUse" id="filter55">
      <feOffset dx="1" dy="1" in="SourceAlpha" result="shadowOffsetInner" />
      <feGaussianBlur stdDeviation="2.5" in="shadowOffsetInner" result="shadowGaussian" />
      <feComposite in2="shadowGaussian" operator="atop" in="SourceAlpha" result="shadowComposite" />
      <feColorMatrix type="matrix" values="0 0 0 0 0  0 0 0 0 0  0 0 0 0 0  0 0 0 0.6980392156862745 0  " in="shadowComposite" />
    </filter>
    <g id="widget56">
      <path d="M 385 354.0369284683536  C 379.2 344.4073405959099  370.5 338.6295878724437  370.5 329  C 370.5 323.98571428571427  373.4 315.5  385 315.5  C 396.6 315.5  399.5 323.98571428571427  399.5 329  C 399.5 338.6295878724437  390.8 344.4073405959099  385 354.0369284683536  Z " fill-rule="nonzero" fill="#ffacb6" stroke="none" />
      <path d="M 385 355  C 379 345  370 339  370 329  C 370 323.8  373 315  385 315  C 397 315  400 323.8  400 329  C 400 339  391 345  385 355  Z M 385 353.0738569367072  C 390.6 343.81468119181983  399 338.2591757448874  399 329  C 399 324.1714285714286  396.2 316  385 316  C 373.8 316  371 324.1714285714286  371 329  C 371 338.2591757448874  379.4 343.81468119181983  385 353.0738569367072  Z " fill-rule="nonzero" fill="#ffffff" stroke="none" />
    </g>
  </defs>
  <g transform="matrix(1 0 0 1 -366 -311 )">
    <use xlink:href="#widget56" filter="url(#filter55)" />
    <use xlink:href="#widget56" />
  </g>
</svg>