<?xml version="1.0" encoding="UTF-8" standalone="no"?><!DOCTYPE svg PUBLIC "-//W3C//DTD SVG 1.1//EN" "http://www.w3.org/Graphics/SVG/1.1/DTD/svg11.dtd"><svg width="100%" height="100%" viewBox="0 0 2813 817" version="1.1" xmlns="http://www.w3.org/2000/svg" xmlns:xlink="http://www.w3.org/1999/xlink" xml:space="preserve" xmlns:serif="http://www.serif.com/" style="fill-rule:evenodd;clip-rule:evenodd;stroke-linejoin:round;stroke-miterlimit:2;"><g><g transform="matrix(1,0,-0.387035,0.807408,-7641.54,-3802.49)"><text x="10443.2px" y="5504.42px" style="font-family:'HiraginoSans-W7', 'Hiragino Sans', sans-serif;font-weight:700;font-size:845.34px;fill:#fff;"><tspan x="10443.2px 10980.8px 11609.7px " y="5504.42px 5504.42px 5504.42px ">EGI</tspan></text></g><g><path d="M683.53,802.351c1.296,-23.881 6.136,-65.912 13.273,-114.629l81.965,-562.632c7.35,-54.449 11.784,-74.508 18.446,-99.345l-176.296,0c-17.392,26.747 -35.533,51.583 -72.564,99.345l-441.116,562.632c-42.609,54.449 -68.788,85.972 -95.271,114.629l162.356,-0c19.245,-32.478 36.191,-58.27 69.355,-101.255l71.087,-92.658l247.634,0l-15.328,92.658c-5.163,28.657 -13.374,62.09 -25.897,101.255l162.356,-0Zm-92.765,-328.601l-178.755,0l203.135,-270.331c14.649,-19.105 17.696,-23.881 31.97,-43.941c-5.467,25.791 -6.641,35.344 -8.19,43.941l-48.16,270.331Z" style="fill:#fff;fill-rule:nonzero;"/><path d="M1870.5,758.487c-58.247,-6.899 158.789,7.138 187.48,10.717c64.93,8.098 144.244,27.227 250.021,27.227c163.996,0 255.532,-65.723 328.137,-221.426c21.381,-45.851 30.998,-84.061 29.298,-115.583c-1.933,-36.299 -18.464,-65.912 -44.065,-83.106c-24.781,-17.194 -58.35,-29.612 -137.483,-51.582c-37.293,-11.463 -50.575,-18.15 -62.378,-31.523c-10.913,-15.284 -10.953,-36.299 1.073,-62.09c25.39,-54.449 84.955,-90.747 148.914,-90.747c39.359,-0 65.477,14.328 72.309,40.119c3.462,17.195 2.521,31.523 -7.188,61.135l152.78,-18.149c15.621,-56.359 17.878,-84.061 12.524,-116.539c-12.35,-64.956 -70.112,-99.344 -167.69,-99.344c-151.696,-0 -289.059,88.837 -354.538,229.256c-32.962,70.687 -35.534,128.957 -8.323,169.077c19.132,25.791 40.401,38.209 101.191,57.314c78.242,23.88 99.207,33.433 115.717,52.537c14.193,15.284 13.717,39.165 -0.092,68.777c-28.507,61.135 -101.182,73.464 -150.34,80.084c-155.926,20.999 -52.184,9.019 -292.141,21.099c-90.31,4.547 -233.78,-2.609 -310.295,31.966l135.089,40.781Z" style="fill:#fff;fill-rule:nonzero;"/></g></g><path d="M2329.4,55.628l28.869,-47.549l-1576.5,15.67l-8.791,54.044" style="fill:#fff;"/><path d="M2388.56,679.966l-1674.36,7.271l-11.35,114.35l1623.12,-6.024" style="fill:#fff;"/></svg>