<?xml version="1.0" encoding="utf-8"?>
<svg version="1.1" xmlns:xlink="http://www.w3.org/1999/xlink" width="44px" height="80px" xmlns="http://www.w3.org/2000/svg">
  <g transform="matrix(1 0 0 1 -118 -66 )">
    <path d="M 140 68  C 151.2 68  160 84.72  160 106  C 160 127.28  151.2 144  140 144  C 128.8 144  120 127.28  120 106  C 120 84.72  128.8 68  140 68  Z " fill-rule="nonzero" fill="#ffffff" stroke="none" />
    <path d="M 140 67.5  C 151.48 67.5  160.5 84.44  160.5 106  C 160.5 127.56  151.48 144.5  140 144.5  C 128.52 144.5  119.5 127.56  119.5 106  C 119.5 84.44  128.52 67.5  140 67.5  Z " stroke-width="3" stroke="#000000" fill="none" />
  </g>
</svg>