<?xml version="1.0" encoding="utf-8"?>
<svg version="1.1" xmlns:xlink="http://www.w3.org/1999/xlink" width="80px" height="80px" xmlns="http://www.w3.org/2000/svg">
  <g transform="matrix(1 0 0 1 -100 -66 )">
    <path d="M 140 68  C 161.28 68  178 84.72  178 106  C 178 127.28  161.28 144  140 144  C 118.72 144  102 127.28  102 106  C 102 84.72  118.72 68  140 68  Z " fill-rule="nonzero" fill="#ffffff" stroke="none" />
    <path d="M 140 67.5  C 161.56 67.5  178.5 84.44  178.5 106  C 178.5 127.56  161.56 144.5  140 144.5  C 118.44 144.5  101.5 127.56  101.5 106  C 101.5 84.44  118.44 67.5  140 67.5  Z " stroke-width="3" stroke="#000000" fill="none" />
  </g>
</svg>